<?xml version="1.0" standalone="no"?>
<!DOCTYPE svg PUBLIC "-//W3C//DTD SVG 20010904//EN"
 "http://www.w3.org/TR/2001/REC-SVG-20010904/DTD/svg10.dtd">
<svg version="1.0" xmlns="http://www.w3.org/2000/svg"
 width="313.000000pt" height="313.000000pt" viewBox="0 0 313.000000 313.000000"
 preserveAspectRatio="xMidYMid meet">
<metadata>
Created by potrace 1.14, written by Peter Selinger 2001-2017
</metadata>
<g transform="translate(0.000000,313.000000) scale(0.100000,-0.100000)"
fill="#000000" stroke="none">
<path d="M1517 3065 c-1 -2 -56 -5 -122 -8 -193 -10 -376 -57 -550 -144 -80
-39 -181 -98 -195 -113 -3 -3 -31 -25 -63 -49 -78 -60 -222 -213 -284 -303
-138 -201 -221 -422 -248 -663 -9 -81 -6 -407 5 -482 46 -326 180 -594 410
-823 124 -124 229 -201 375 -273 122 -60 213 -91 360 -123 80 -17 184 -25 330
-25 190 -1 247 4 387 32 505 100 945 514 1077 1012 43 160 51 235 51 455 0
186 -2 226 -26 362 -30 165 -127 386 -243 550 -43 61 -215 241 -271 285 -193
150 -412 246 -660 290 -19 3 -89 8 -155 11 -66 2 -132 6 -148 8 -15 1 -28 2
-30 1z"/>
</g>
</svg>
